<svg width="24" height="24" viewBox="0 0 24 24" fill="none" xmlns="http://www.w3.org/2000/svg">
<path d="M21.2734 9.22656L15.6484 3.60156C14.9453 2.89844 13.75 3.39062 13.75 4.41016V6.94141C8.75781 7.08203 4.46875 8.3125 4.46875 13.3398C4.46875 16.3281 6.19141 18.0508 7.24609 18.7891C8.08984 19.4219 9.28516 18.6133 9.00391 17.5938C7.98438 13.9727 9.28516 13.2695 13.75 13.1289V15.625C13.75 16.6445 14.9453 17.1367 15.6484 16.4336L21.2734 10.8086C21.7305 10.3867 21.7305 9.64844 21.2734 9.22656ZM14.875 15.625V12.0039C9.88281 12.0039 6.40234 12.5312 7.91406 17.875C6.78906 17.0664 5.59375 15.625 5.59375 13.3398C5.59375 8.62891 10.1992 8.06641 14.875 8.06641V4.375L20.5 10L14.875 15.625ZM16.1758 17.4883C16.0352 17.5586 16 17.6992 16 17.8047V19.5625C16 19.8789 15.7188 20.125 15.4375 20.125H3.0625C2.74609 20.125 2.5 19.8789 2.5 19.5625V7.1875C2.5 6.90625 2.74609 6.625 3.0625 6.625H8.08984C8.16016 6.625 8.19531 6.625 8.23047 6.625C8.54688 6.51953 8.86328 6.41406 9.17969 6.34375C9.35547 6.30859 9.49609 6.13281 9.49609 5.95703C9.53125 5.71094 9.32031 5.5 9.10938 5.5H3.0625C2.11328 5.5 1.375 6.27344 1.375 7.1875V19.5625C1.375 20.5117 2.11328 21.25 3.0625 21.25H15.4375C16.3516 21.25 17.125 20.5117 17.125 19.5625V17.5938C17.125 17.207 16.668 17.0312 16.3867 17.2773C16.3164 17.3477 16.2461 17.418 16.1758 17.4883Z" fill="#CDCDCD"/>
</svg>
